<svg fill="none" height="20" viewBox="0 0 20 20" width="20" xmlns="http://www.w3.org/2000/svg"><g fill="currentColor"><path d="m1.70711.292893c-.39053-.3905241-1.023693-.3905241-1.414217 0-.3905241.390524-.3905241 1.023687 0 1.414217l1.792897 1.79289-1.792897 1.79289c-.390524.39053-.390524 1.02369 0 1.41422.390524.39052 1.023687.39052 1.414217 0l1.79289-1.7929 1.79289 1.7929c.39053.39052 1.02369.39052 1.41422 0 .39052-.39053.39052-1.02369 0-1.41422l-1.7929-1.79289 1.7929-1.79289c.39052-.39053.39052-1.023693 0-1.414217-.39053-.3905241-1.02369-.3905241-1.41422 0l-1.79289 1.792897z"/><path clip-rule="evenodd" d="m16 20c2.2091 0 4-1.7909 4-4s-1.7909-4-4-4-4 1.7909-4 4 1.7909 4 4 4zm0-2c1.1046 0 2-.8954 2-2s-.8954-2-2-2-2 .8954-2 2 .8954 2 2 2z" fill-rule="evenodd"/><path d="m18.29 5.7-2.29-2.29v4.59c0 1.65685-1.3431 3-3 3h-9c-.55228 0-1 .4477-1 1v7c0 .5523-.44772 1-1 1s-1-.4477-1-1v-7c0-1.6569 1.34315-3 3-3h9c.5523 0 1-.44772 1-1v-4.59l-2.29 2.3c-.18.18-.43.29-.71.29-.55 0-1-.45-1-1 0-.28.11-.53.29-.71l4-4c.18-.18.43-.28999999.71-.28999999s.53.10999999.71.28999999l4 4c.18.18.29.43.29.71 0 .55-.45 1-1 1-.28 0-.53-.11-.71-.3z"/></g></svg>